<svg xmlns="http://www.w3.org/2000/svg" xmlns:xlink="http://www.w3.org/1999/xlink" width="500" zoomAndPan="magnify" viewBox="0 0 375 374.999991" height="500" preserveAspectRatio="xMidYMid meet" version="1.0"><defs><clipPath id="32cb0cc7f4"><path d="M 190.226562 124.015625 L 355 124.015625 L 355 250.765625 L 190.226562 250.765625 Z M 190.226562 124.015625 " clip-rule="nonzero"/></clipPath><clipPath id="c1fffab07f"><path d="M 20 124.015625 L 184.765625 124.015625 L 184.765625 250.765625 L 20 250.765625 Z M 20 124.015625 " clip-rule="nonzero"/></clipPath></defs><path fill="#ad0909" d="M 255.792969 220.699219 C 247.925781 221.683594 238.570312 222.710938 227.523438 223.789062 C 220.96875 224.425781 214.980469 229.359375 210.628906 234.132812 C 207.984375 237.039062 205.628906 240.167969 203.566406 243.515625 C 209.222656 239.972656 218.574219 238.53125 229.367188 237.371094 C 240.15625 236.210938 252.390625 235.332031 263.800781 232.917969 C 272.167969 231.144531 278.628906 228.058594 283.320312 224.457031 C 288.015625 220.855469 290.941406 216.738281 292.242188 212.90625 C 290.527344 214.425781 285.394531 216.066406 275.164062 217.871094 C 270.050781 218.773438 263.664062 219.714844 255.792969 220.699219 Z M 255.792969 220.699219 " fill-opacity="1" fill-rule="nonzero"/><path fill="#ad0909" d="M 292.015625 194.105469 C 286.5 195.097656 279.976562 196.082031 272.226562 197.144531 C 271.332031 197.269531 270.417969 197.394531 269.488281 197.519531 C 260.382812 198.746094 249.683594 200.113281 237.0625 201.648438 C 230.527344 202.445312 224.984375 207.011719 221.046875 211.457031 C 218.589844 214.238281 216.457031 217.246094 214.648438 220.488281 C 216.808594 219.492188 222.289062 218.210938 225.171875 217.671875 C 231.859375 216.421875 238.675781 215.671875 245.429688 214.90625 C 250.96875 214.273438 256.363281 213.695312 261.625 213.0625 C 270.027344 212.046875 277.984375 210.925781 285.691406 209.332031 C 287.191406 209.019531 288.667969 208.6875 290.117188 208.328125 C 297.78125 206.417969 303.683594 202.898438 308.066406 198.949219 C 312.785156 194.695312 315.734375 189.941406 317.101562 185.957031 C 313.476562 188.894531 307.246094 191.125 296.328125 193.289062 C 294.960938 193.5625 293.523438 193.835938 292.015625 194.105469 Z M 292.015625 194.105469 " fill-opacity="1" fill-rule="nonzero"/><path fill="#ad0909" d="M 285.351562 174.074219 C 274.550781 175.621094 261.785156 177.359375 246.601562 179.507812 C 233.121094 181.417969 225.730469 197.460938 225.730469 197.460938 C 227.75 196.914062 235.820312 195.523438 238.195312 195.234375 C 254.65625 193.207031 268.109375 191.726562 280.027344 190.167969 C 291.949219 188.613281 302.335938 186.980469 312.660156 184.660156 C 321.425781 182.667969 328.035156 178.324219 332.8125 173.445312 C 337.589844 168.5625 340.53125 163.148438 341.957031 159.011719 C 335.652344 163.976562 327 166.949219 312.328125 169.757812 C 304.992188 171.160156 296.152344 172.523438 285.351562 174.074219 Z M 285.351562 174.074219 " fill-opacity="1" fill-rule="nonzero"/><g clip-path="url(#32cb0cc7f4)"><path fill="#ad0909" d="M 354.566406 124.066406 C 353.480469 133.488281 330.78125 143.183594 245.875 157.105469 C 219.863281 161.367188 212.472656 170.726562 206.386719 190.585938 C 201.246094 207.359375 191.792969 244.585938 190.226562 250.929688 C 197.472656 246.15625 213.125 209.109375 218.558594 197.078125 C 223.992188 185.046875 227.207031 176 245.875 173.335938 C 298.046875 165.886719 321.8125 161.304688 330.960938 158.027344 C 358.664062 148.101562 354.566406 124.066406 354.566406 124.066406 Z M 354.566406 124.066406 " fill-opacity="1" fill-rule="nonzero"/></g><path fill="#ad0909" d="M 119.199219 220.699219 C 127.070312 221.683594 136.421875 222.710938 147.46875 223.789062 C 154.027344 224.425781 160.015625 229.359375 164.367188 234.132812 C 167.011719 237.039062 169.367188 240.167969 171.425781 243.515625 C 165.773438 239.972656 156.421875 238.53125 145.628906 237.371094 C 134.835938 236.210938 122.605469 235.332031 111.191406 232.917969 C 102.824219 231.144531 96.367188 228.058594 91.671875 224.457031 C 86.980469 220.855469 84.050781 216.738281 82.75 212.90625 C 84.46875 214.425781 89.601562 216.066406 99.828125 217.871094 C 104.941406 218.773438 111.328125 219.714844 119.199219 220.699219 Z M 119.199219 220.699219 " fill-opacity="1" fill-rule="nonzero"/><path fill="#ad0909" d="M 82.980469 194.105469 C 88.492188 195.097656 95.015625 196.082031 102.765625 197.144531 C 103.664062 197.269531 104.578125 197.394531 105.507812 197.519531 C 114.609375 198.746094 125.3125 200.113281 137.929688 201.648438 C 144.464844 202.445312 150.011719 207.011719 153.949219 211.457031 C 156.40625 214.238281 158.535156 217.246094 160.34375 220.488281 C 158.1875 219.492188 152.703125 218.210938 149.820312 217.671875 C 143.136719 216.421875 136.316406 215.671875 129.566406 214.90625 C 124.027344 214.273438 118.628906 213.695312 113.367188 213.0625 C 104.964844 212.046875 97.011719 210.925781 89.304688 209.332031 C 87.804688 209.019531 86.328125 208.6875 84.878906 208.328125 C 77.214844 206.417969 71.308594 202.898438 66.925781 198.949219 C 62.207031 194.695312 59.257812 189.941406 57.894531 185.957031 C 61.515625 188.894531 67.75 191.125 78.667969 193.289062 C 80.03125 193.5625 81.46875 193.835938 82.980469 194.105469 Z M 82.980469 194.105469 " fill-opacity="1" fill-rule="nonzero"/><path fill="#ad0909" d="M 89.644531 174.074219 C 100.445312 175.621094 113.207031 177.359375 128.394531 179.507812 C 141.871094 181.417969 149.261719 197.460938 149.261719 197.460938 C 147.246094 196.914062 139.175781 195.523438 136.796875 195.234375 C 120.339844 193.207031 106.882812 191.726562 94.964844 190.167969 C 83.046875 188.613281 72.660156 186.980469 62.335938 184.660156 C 53.570312 182.667969 46.957031 178.324219 42.179688 173.445312 C 37.40625 168.5625 34.464844 163.148438 33.035156 159.011719 C 39.339844 163.976562 47.996094 166.949219 62.667969 169.757812 C 70 171.160156 78.839844 172.523438 89.644531 174.074219 Z M 89.644531 174.074219 " fill-opacity="1" fill-rule="nonzero"/><g clip-path="url(#c1fffab07f)"><path fill="#ad0909" d="M 20.429688 124.066406 C 21.515625 133.488281 44.210938 143.183594 129.117188 157.105469 C 155.132812 161.367188 162.523438 170.726562 168.609375 190.585938 C 173.75 207.359375 183.203125 244.585938 184.765625 250.929688 C 177.519531 246.15625 161.871094 209.109375 156.433594 197.078125 C 151 185.046875 147.789062 176 129.117188 173.335938 C 76.945312 165.886719 53.179688 161.304688 44.03125 158.027344 C 16.328125 148.101562 20.429688 124.066406 20.429688 124.066406 Z M 20.429688 124.066406 " fill-opacity="1" fill-rule="nonzero"/></g></svg>